<svg width="227" height="227" viewBox="0 0 227 227" fill="none" xmlns="http://www.w3.org/2000/svg">
<path d="M46.0654 195V28.2139H116.944C134.768 28.2139 147.7 29.7308 155.739 32.7646C163.855 35.7227 170.34 41.0319 175.194 48.6924C180.048 56.3529 182.475 65.1131 182.475 74.9731C182.475 87.4878 178.797 97.8408 171.439 106.032C164.082 114.148 153.085 119.267 138.446 121.391C145.728 125.639 151.719 130.303 156.422 135.385C161.2 140.466 167.609 149.492 175.649 162.462L196.014 195H155.739L131.393 158.708C122.746 145.738 116.83 137.584 113.645 134.247C110.459 130.834 107.084 128.521 103.519 127.307C99.9543 126.018 94.3037 125.373 86.5674 125.373H79.7412V195H46.0654ZM79.7412 98.751H104.657C120.812 98.751 130.9 98.0684 134.919 96.7031C138.939 95.3379 142.087 92.9867 144.362 89.6494C146.638 86.3122 147.775 82.1406 147.775 77.1348C147.775 71.5221 146.258 67.0093 143.225 63.5962C140.267 60.1073 136.057 57.9077 130.596 56.9976C127.866 56.6183 119.674 56.4287 106.022 56.4287H79.7412V98.751Z" fill="white"/>
</svg>
